<svg xmlns="http://www.w3.org/2000/svg" viewBox="0 0 32 32" id="hanger">
  <path fill="gray" d="M30.274,21.4,17.023,13.449a3.031,3.031,0,0,1,1.325-2.21A3.978,3.978,0,0,0,19.936,7.29,4,4,0,0,0,12,8a1,1,0,0,0,2,0,2,2,0,0,1,.721-1.537,1.975,1.975,0,0,1,1.648-.428,2.019,2.019,0,0,1,1.6,1.6,2,2,0,0,1-.793,1.982,4.992,4.992,0,0,0-2.161,3.806L1.728,21.4A3.568,3.568,0,0,0,0,24.451a3.47,3.47,0,0,0,1.036,2.5A3.486,3.486,0,0,0,3.55,28h24.9a3.552,3.552,0,0,0,1.824-6.6ZM28.45,26H3.55a1.5,1.5,0,0,1-1.1-.465A1.482,1.482,0,0,1,2,24.451a1.539,1.539,0,0,1,.755-1.333L16,15.167l13.245,7.951h0A1.552,1.552,0,0,1,28.45,26Z"></path>
</svg>
